<svg width="133" height="32" viewBox="0 0 133 32" fill="none" xmlns="http://www.w3.org/2000/svg">
<g filter="url(#filter0_d_0_128)">
<path d="M20.835 18.56C20.995 18.56 21.135 18.625 21.255 18.755L22.41 20C21.53 21.02 20.46 21.815 19.2 22.385C17.95 22.955 16.435 23.24 14.655 23.24C13.115 23.24 11.715 22.975 10.455 22.445C9.195 21.905 8.12 21.155 7.23 20.195C6.34 19.225 5.65 18.065 5.16 16.715C4.67 15.365 4.425 13.88 4.425 12.26C4.425 10.64 4.68 9.155 5.19 7.805C5.7 6.455 6.415 5.295 7.335 4.325C8.265 3.355 9.375 2.605 10.665 2.075C11.955 1.535 13.38 1.265 14.94 1.265C16.47 1.265 17.82 1.51 18.99 2C20.16 2.49 21.19 3.155 22.08 3.995L21.12 5.33C21.06 5.43 20.98 5.515 20.88 5.585C20.79 5.645 20.665 5.675 20.505 5.675C20.325 5.675 20.105 5.58 19.845 5.39C19.585 5.19 19.245 4.97 18.825 4.73C18.405 4.49 17.88 4.275 17.25 4.085C16.62 3.885 15.845 3.785 14.925 3.785C13.815 3.785 12.8 3.98 11.88 4.37C10.96 4.75 10.165 5.305 9.495 6.035C8.835 6.765 8.32 7.655 7.95 8.705C7.58 9.755 7.395 10.94 7.395 12.26C7.395 13.6 7.585 14.795 7.965 15.845C8.355 16.895 8.88 17.785 9.54 18.515C10.21 19.235 10.995 19.785 11.895 20.165C12.805 20.545 13.785 20.735 14.835 20.735C15.475 20.735 16.05 20.7 16.56 20.63C17.08 20.55 17.555 20.43 17.985 20.27C18.425 20.11 18.83 19.91 19.2 19.67C19.58 19.42 19.955 19.125 20.325 18.785C20.495 18.635 20.665 18.56 20.835 18.56ZM27.8391 9.83C28.4891 9.14 29.2091 8.59 29.9991 8.18C30.7891 7.77 31.6991 7.565 32.7291 7.565C33.5591 7.565 34.2891 7.705 34.9191 7.985C35.5591 8.255 36.0891 8.645 36.5091 9.155C36.9391 9.655 37.2641 10.26 37.4841 10.97C37.7041 11.68 37.8141 12.465 37.8141 13.325V23H35.1291V13.325C35.1291 12.175 34.8641 11.285 34.3341 10.655C33.8141 10.015 33.0191 9.695 31.9491 9.695C31.1591 9.695 30.4191 9.885 29.7291 10.265C29.0491 10.645 28.4191 11.16 27.8391 11.81V23H25.1541V0.904999H27.8391V9.83ZM52.0526 13.745C52.0526 13.125 51.9626 12.56 51.7826 12.05C51.6126 11.53 51.3576 11.085 51.0176 10.715C50.6876 10.335 50.2826 10.045 49.8026 9.845C49.3226 9.635 48.7776 9.53 48.1676 9.53C46.8876 9.53 45.8726 9.905 45.1226 10.655C44.3826 11.395 43.9226 12.425 43.7426 13.745H52.0526ZM54.2126 20.87C53.8826 21.27 53.4876 21.62 53.0276 21.92C52.5676 22.21 52.0726 22.45 51.5426 22.64C51.0226 22.83 50.4826 22.97 49.9226 23.06C49.3626 23.16 48.8076 23.21 48.2576 23.21C47.2076 23.21 46.2376 23.035 45.3476 22.685C44.4676 22.325 43.7026 21.805 43.0526 21.125C42.4126 20.435 41.9126 19.585 41.5526 18.575C41.1926 17.565 41.0126 16.405 41.0126 15.095C41.0126 14.035 41.1726 13.045 41.4926 12.125C41.8226 11.205 42.2926 10.41 42.9026 9.74C43.5126 9.06 44.2576 8.53 45.1376 8.15C46.0176 7.76 47.0076 7.565 48.1076 7.565C49.0176 7.565 49.8576 7.72 50.6276 8.03C51.4076 8.33 52.0776 8.77 52.6376 9.35C53.2076 9.92 53.6526 10.63 53.9726 11.48C54.2926 12.32 54.4526 13.28 54.4526 14.36C54.4526 14.78 54.4076 15.06 54.3176 15.2C54.2276 15.34 54.0576 15.41 53.8076 15.41H43.6526C43.6826 16.37 43.8126 17.205 44.0426 17.915C44.2826 18.625 44.6126 19.22 45.0326 19.7C45.4526 20.17 45.9526 20.525 46.5326 20.765C47.1126 20.995 47.7626 21.11 48.4826 21.11C49.1526 21.11 49.7276 21.035 50.2076 20.885C50.6976 20.725 51.1176 20.555 51.4676 20.375C51.8176 20.195 52.1076 20.03 52.3376 19.88C52.5776 19.72 52.7826 19.64 52.9526 19.64C53.1726 19.64 53.3426 19.725 53.4626 19.895L54.2126 20.87ZM68.3072 10.505C68.2272 10.615 68.1472 10.7 68.0672 10.76C67.9872 10.82 67.8772 10.85 67.7372 10.85C67.5872 10.85 67.4222 10.79 67.2422 10.67C67.0622 10.54 66.8372 10.4 66.5672 10.25C66.3072 10.1 65.9822 9.965 65.5922 9.845C65.2122 9.715 64.7422 9.65 64.1822 9.65C63.4322 9.65 62.7722 9.785 62.2022 10.055C61.6322 10.315 61.1522 10.695 60.7622 11.195C60.3822 11.695 60.0922 12.3 59.8922 13.01C59.7022 13.72 59.6072 14.515 59.6072 15.395C59.6072 16.315 59.7122 17.135 59.9222 17.855C60.1322 18.565 60.4272 19.165 60.8072 19.655C61.1972 20.135 61.6622 20.505 62.2022 20.765C62.7522 21.015 63.3672 21.14 64.0472 21.14C64.6972 21.14 65.2322 21.065 65.6522 20.915C66.0722 20.755 66.4172 20.58 66.6872 20.39C66.9672 20.2 67.1972 20.03 67.3772 19.88C67.5672 19.72 67.7522 19.64 67.9322 19.64C68.1522 19.64 68.3222 19.725 68.4422 19.895L69.1922 20.87C68.8622 21.28 68.4872 21.63 68.0672 21.92C67.6472 22.21 67.1922 22.455 66.7022 22.655C66.2222 22.845 65.7172 22.985 65.1872 23.075C64.6572 23.165 64.1172 23.21 63.5672 23.21C62.6172 23.21 61.7322 23.035 60.9122 22.685C60.1022 22.335 59.3972 21.83 58.7972 21.17C58.1972 20.5 57.7272 19.68 57.3872 18.71C57.0472 17.74 56.8772 16.635 56.8772 15.395C56.8772 14.265 57.0322 13.22 57.3422 12.26C57.6622 11.3 58.1222 10.475 58.7222 9.785C59.3322 9.085 60.0772 8.54 60.9572 8.15C61.8472 7.76 62.8672 7.565 64.0172 7.565C65.0872 7.565 66.0272 7.74 66.8372 8.09C67.6572 8.43 68.3822 8.915 69.0122 9.545L68.3072 10.505ZM74.7434 0.904999V13.91H75.4334C75.6334 13.91 75.7984 13.885 75.9284 13.835C76.0684 13.775 76.2134 13.66 76.3634 13.49L81.1634 8.345C81.3034 8.175 81.4484 8.045 81.5984 7.955C81.7584 7.855 81.9684 7.805 82.2284 7.805H84.6434L79.0484 13.76C78.7784 14.1 78.4884 14.365 78.1784 14.555C78.3584 14.675 78.5184 14.815 78.6584 14.975C78.8084 15.125 78.9484 15.3 79.0784 15.5L85.0184 23H82.6334C82.4034 23 82.2034 22.965 82.0334 22.895C81.8734 22.815 81.7334 22.675 81.6134 22.475L76.6184 16.25C76.4684 16.04 76.3184 15.905 76.1684 15.845C76.0284 15.775 75.8084 15.74 75.5084 15.74H74.7434V23H72.0584V0.904999H74.7434ZM92.8481 7.565C93.9581 7.565 94.9581 7.75 95.8481 8.12C96.7381 8.49 97.4981 9.015 98.1281 9.695C98.7581 10.375 99.2381 11.2 99.5681 12.17C99.9081 13.13 100.078 14.205 100.078 15.395C100.078 16.595 99.9081 17.675 99.5681 18.635C99.2381 19.595 98.7581 20.415 98.1281 21.095C97.4981 21.775 96.7381 22.3 95.8481 22.67C94.9581 23.03 93.9581 23.21 92.8481 23.21C91.7281 23.21 90.7181 23.03 89.8181 22.67C88.9281 22.3 88.1681 21.775 87.5381 21.095C86.9081 20.415 86.4231 19.595 86.0831 18.635C85.7531 17.675 85.5881 16.595 85.5881 15.395C85.5881 14.205 85.7531 13.13 86.0831 12.17C86.4231 11.2 86.9081 10.375 87.5381 9.695C88.1681 9.015 88.9281 8.49 89.8181 8.12C90.7181 7.75 91.7281 7.565 92.8481 7.565ZM92.8481 21.125C94.3481 21.125 95.4681 20.625 96.2081 19.625C96.9481 18.615 97.3181 17.21 97.3181 15.41C97.3181 13.6 96.9481 12.19 96.2081 11.18C95.4681 10.17 94.3481 9.665 92.8481 9.665C92.0881 9.665 91.4231 9.795 90.8531 10.055C90.2931 10.315 89.8231 10.69 89.4431 11.18C89.0731 11.67 88.7931 12.275 88.6031 12.995C88.4231 13.705 88.3331 14.51 88.3331 15.41C88.3331 17.21 88.7031 18.615 89.4431 19.625C90.1931 20.625 91.3281 21.125 92.8481 21.125ZM115.96 7.805V23H114.37C113.99 23 113.75 22.815 113.65 22.445L113.44 20.81C112.78 21.54 112.04 22.13 111.22 22.58C110.4 23.02 109.46 23.24 108.4 23.24C107.57 23.24 106.835 23.105 106.195 22.835C105.565 22.555 105.035 22.165 104.605 21.665C104.175 21.165 103.85 20.56 103.63 19.85C103.42 19.14 103.315 18.355 103.315 17.495V7.805H105.985V17.495C105.985 18.645 106.245 19.535 106.765 20.165C107.295 20.795 108.1 21.11 109.18 21.11C109.97 21.11 110.705 20.925 111.385 20.555C112.075 20.175 112.71 19.655 113.29 18.995V7.805H115.96ZM124.858 23.24C123.658 23.24 122.733 22.905 122.083 22.235C121.443 21.565 121.123 20.6 121.123 19.34V10.04H119.293C119.133 10.04 118.998 9.995 118.888 9.905C118.778 9.805 118.723 9.655 118.723 9.455V8.39L121.213 8.075L121.828 3.38C121.858 3.23 121.923 3.11 122.023 3.02C122.133 2.92 122.273 2.87 122.443 2.87H123.793V8.105H128.188V10.04H123.793V19.16C123.793 19.8 123.948 20.275 124.258 20.585C124.568 20.895 124.968 21.05 125.458 21.05C125.738 21.05 125.978 21.015 126.178 20.945C126.388 20.865 126.568 20.78 126.718 20.69C126.868 20.6 126.993 20.52 127.093 20.45C127.203 20.37 127.298 20.33 127.378 20.33C127.518 20.33 127.643 20.415 127.753 20.585L128.533 21.86C128.073 22.29 127.518 22.63 126.868 22.88C126.218 23.12 125.548 23.24 124.858 23.24Z" fill="#1D2C3C"/>
</g>
<defs>
<filter id="filter0_d_0_128" x="0.425003" y="0.904999" width="132.108" height="30.335" filterUnits="userSpaceOnUse" color-interpolation-filters="sRGB">
<feFlood flood-opacity="0" result="BackgroundImageFix"/>
<feColorMatrix in="SourceAlpha" type="matrix" values="0 0 0 0 0 0 0 0 0 0 0 0 0 0 0 0 0 0 127 0" result="hardAlpha"/>
<feOffset dy="4"/>
<feGaussianBlur stdDeviation="2"/>
<feColorMatrix type="matrix" values="0 0 0 0 0 0 0 0 0 0 0 0 0 0 0 0 0 0 0.25 0"/>
<feBlend mode="normal" in2="BackgroundImageFix" result="effect1_dropShadow_0_128"/>
<feBlend mode="normal" in="SourceGraphic" in2="effect1_dropShadow_0_128" result="shape"/>
</filter>
</defs>
</svg>
